<?xml version="1.0" standalone="no"?>
<!DOCTYPE svg PUBLIC "-//W3C//DTD SVG 1.1//EN" "http://www.w3.org/Graphics/SVG/1.1/DTD/svg11.dtd" >
<svg xmlns="http://www.w3.org/2000/svg">
<metadata>
This is a custom SVG font generated by IcoMoon.
<iconset grid="16"></iconset>
</metadata>
<defs>
<font id="euged_social" horiz-adv-x="512" >
<font-face units-per-em="512" ascent="480" descent="-32" />
<missing-glyph horiz-adv-x="512" />
<glyph class="hidden" unicode="&#xf000;" d="M0,480L 512 -32L0 -32 z" horiz-adv-x="0" />
<glyph unicode="&#xe000;" d="M 206.618,241.869c0,0, 48.461,3.763, 48.461,62.976S 215.424,392.96, 165.222,392.96L0,392.96 l0-330.906 l 165.222,0 c0,0, 100.838-3.302, 100.838,97.638
	C 266.086,159.693, 270.464,241.869, 206.618,241.869z M 72.806,334.157l 92.416,0 c0,0, 22.451,0, 22.451-34.432c0-34.432-13.21-39.424-28.211-39.424L 72.806,260.301 L 72.806,334.157 z
	 M 160.538,120.858L 72.806,120.858 l0,88.448 l 92.416,0 c0,0, 33.485,0.461, 33.485-45.44C 198.707,125.158, 173.696,121.139, 160.538,120.858z M 400.589,308.762
	c-122.112,0-122.010-127.104-122.010-127.104s-8.371-126.49, 122.010-126.49c0,0, 108.646-6.502, 108.646,88.013l-55.859,0 c0,0, 1.843-35.61-50.918-35.61
	c0,0-55.885-3.891-55.885,57.549l 164.531,0 C 511.13,165.094, 529.126,308.762, 400.589,308.762z M 450.278,209.28l-104.294,0 c0,0, 6.835,51.021, 55.885,51.021
	C 450.867,260.301, 450.278,209.28, 450.278,209.28z M 463.309,373.478L 332.288,373.478 l0-40.755 l 130.995,0 L 463.283,373.478 z"  />
<glyph unicode="&#xe001;" d="M 280.928,276.5c-19.521,1.141-42.041-0.024-68.125-4.475l 60.167-108.444L 512,229.214
	c-2.577,6.13-6.343,12.113-11.331,17.899c-24.737,28.639-78.37,54.187-136.802,65.709l 0.001,0.013
	c-57.322,13.437-119.401,12.872-182.98,3.274c-2.292-0.344-4.572-0.711-6.84-1.092l-21.136,39.146
	c-20.571-2.746-39.904-7.025-57.803-12.737l 20.13-42.099c-32.88-12.738-59.861-30.88-79.329-52.716
	C 3.804,210.079-8.885,164.157, 6.537,119.435c 3.102-9.021, 7.294-17.58, 12.468-25.598l 239.034,65.649l-66.375,122.924
	c 2.279,0.44, 4.598,0.884, 6.964,1.312c 107.341,19.149, 166.051-10.432, 198.208-41.915l-81.779-19.824L 280.928,276.5z M 87.361,166.805
	c-7.379,33.676-1.506,71.263, 45.202,96.297l 36.569-76.474L 87.361,166.805z"  />
<glyph unicode="&#xe002;" d="M 244.864,290.022C 210.099,351.846, 172.928,402.227, 170.189,405.914C 114.099,379.418, 72.218,327.757, 59.187,265.472C 64.461,265.37, 148.275,264.371, 244.864,290.022
	z M 269.926,222.464c 2.662,0.845, 5.274,1.613, 7.962,2.381c-5.043,11.443-10.573,22.886-16.333,34.176c-103.578-30.976-202.982-28.749-206.515-28.646
	C 54.963,228.25, 54.886,226.15, 54.886,224c0-51.738, 19.558-98.842, 51.61-134.477c-0.051,0.051-0.154,0.179-0.154,0.179
	S 161.408,187.341, 269.926,222.464z M 132.378,65.459l 0.051,0.077c-1.51,1.178-3.098,2.227-4.557,3.456
	C 130.534,66.842, 132.378,65.459, 132.378,65.459z M 207.821,419.277C 207.642,419.226, 207.462,419.2, 207.309,419.149C 207.59,419.226, 207.795,419.251, 207.821,419.277
	L 207.821,419.277z M 388.838,374.938c-35.43,31.206-81.894,50.176-132.813,50.176c-16.358,0-32.205-1.997-47.411-5.683
	c 3.046-4.045, 40.806-54.221, 75.213-117.325C 359.654,330.547, 388.326,374.118, 388.838,374.938z M 256.026-11.52C 125.926-11.52, 20.48,93.926, 20.48,224
	s 105.446,235.52, 235.546,235.52c 130.074,0, 235.494-105.446, 235.494-235.52S 386.099-11.52, 256.026-11.52z M 290.227,191.104c-118.042-41.139-157.030-123.878-157.798-125.568
	c 34.099-26.65, 76.954-42.65, 123.597-42.65c 27.853,0, 54.374,5.658, 78.49,15.898c-2.97,17.638-14.669,79.258-42.957,152.781
	C 291.123,191.386, 290.662,191.258, 290.227,191.104z M 299.264,272.154c 4.71-9.6, 9.19-19.328, 13.363-29.184c 1.51-3.482, 2.918-6.938, 4.352-10.394
	c 69.478,8.73, 137.856-6.093, 140.083-6.579c-0.461,47.718-17.51,91.494-45.722,125.747C 410.931,351.155, 378.675,304.563, 299.264,272.154z M 329.242,200.832
	c 26.419-72.576, 37.12-131.635, 39.142-143.667c 45.184,30.49, 77.261,78.848, 86.195,134.938C 450.611,193.408, 394.266,211.251, 329.242,200.832z"  />
<glyph unicode="&#xe003;" d="M 384,374.298l-73.114,0 c-8.653,0-18.304-11.366-18.304-26.598L 292.582,294.912 L 384,294.912 l0-75.264 l-91.418,0 L 292.582-6.4 L 206.259-6.4 l0,226.022 L 128,219.622 L 128,294.912 l 78.259,0 L 206.259,339.2 
	c0,63.514, 44.083,115.2, 104.602,115.2L 384,454.4 L 384,374.298 z"  />
<glyph unicode="&#xe004;" d="M 126.029,121.6C 70.554,121.6, 25.6,167.398, 25.6,224s 44.954,102.4, 100.429,102.4c 55.475,0, 100.454-45.824, 100.454-102.4S 181.504,121.6, 126.029,121.6z M 385.946,121.6
	c-55.501,0-100.506,45.798-100.506,102.4s 45.005,102.4, 100.506,102.4C 441.395,326.4, 486.4,280.576, 486.4,224S 441.395,121.6, 385.946,121.6z"  />
<glyph unicode="&#xe005;" d="M 478.944-15.552L 267.12,472.944C 265.264,477.232, 261.024,480, 256.352,480
		s-8.912-2.768-10.752-7.040L 33.056-15.536c-1.584-3.664-1.216-7.84, 0.96-11.152C 36.192-29.984, 39.872-32, 43.824-32L 224-32 l0,106.688 l-63.984,21.328
		c-8.848,0-16,7.152-16,16s 7.152,16, 16,16L 224,106.688L 224,208 c0,8.848, 7.152,16, 16,16l 32,0 c 8.848,0, 16-7.152, 16-16l0-24 l 47.984,24c 8.848,0, 16-7.152, 16-16
		s-7.152-16-16-16L 288,152.016l0-56 l 79.984,48c 8.848,0, 16-7.152, 16-16s-7.152-16-16-16l-79.984-48L 288-32 l 180.176,0 c 3.968,0, 7.648,2, 9.808,5.312
		C 480.16-23.392, 480.496-19.184, 478.944-15.552z"  />
<glyph unicode="&#xe006;" d="M 402.286,224q0,37.143 -14.571,71t-39,58.286t-58.286,39t-71,14.571t-71-14.571t-58.286-39t-39-58.286t-14.571-71q0-59.714 35.571-108.143t 92.429-66.143l0,48.286 q-15.429-2 -19.714-2q-31.429,0 -43.714,28.571q-4.286,10.857 -10.286,18q-1.429,1.714 -6,5.429t-8.143,6.857t-3.571,4.571q0,3.429 8,3.429q 8.286,0 14.714-4.143t 10.857-10 t 9-11.857t 11.571-10.143t 16.143-4.143q 12,0 23.143,4q 4.571,16.286 18,25.429q-47.429,4.571 -70.286,23.857t-22.857,64.143q0,33.714 20.857,56.571q-4,12 -4,24q0,16.571 7.714,31.143q 16.286,0 28.857-5.571t 28.857-17.286q 21.714,5.143 48.286,5.143q 22.857,0 43.714-4.571q 16.286,11.429 28.714,16.857t 28.429,5.429q 7.714-14.571 7.714-31.143q0-12.286 -4-23.714q 20.857-23.429 20.857-56.857 q0-44.857 -22.857-64.429t-70-23.857q 19.714-13.429 19.714-37.429l0-64.571 q 56.857,17.714 92.429,66.143t 35.571,108.143zM 438.857,224q0-59.714 -29.429-110.143t-79.857-79.857t-110.143-29.429t-110.143,29.429t-79.857,79.857t-29.429,110.143t 29.429,110.143t 79.857,79.857t 110.143,29.429t 110.143-29.429t 79.857-79.857t 29.429-110.143z" horiz-adv-x="438.857"  />
<glyph unicode="&#xe007;" d="M 50.944,336.922c0-38.221, 12.774-65.843, 37.939-82.048c 20.608-13.286, 44.544-15.283, 56.986-15.283c 3.021,0, 5.427,0.128, 7.117,0.23
	c0,0-3.942-25.677, 15.104-51.098l-0.87,0.026c-32.998,0-140.646-6.912-140.646-95.411c0-90.035, 98.867-94.592, 118.682-94.592
	c 1.562,0, 2.458,0.026, 2.458,0.026c 0.23,0, 1.638-0.051, 4.045-0.051c 12.723,0, 45.619,1.587, 76.186,16.461
	c 39.629,19.226, 59.75,52.71, 59.75,99.456c0,45.184-30.618,72.064-52.992,91.725c-13.645,11.981-25.446,22.323-25.446,32.384
	c0,10.24, 8.602,17.946, 19.507,27.699c 17.613,15.77, 34.253,38.221, 34.253,80.666c0,37.325-4.838,62.362-34.662,78.234
	c 3.123,1.587, 14.106,2.739, 19.558,3.507c 16.154,2.202, 39.782,4.71, 39.782,17.894L 287.693,449.28 L 169.984,449.28 C 168.806,449.254, 50.944,444.877, 50.944,336.922z
	 M 240.973,106.189c 2.253-35.994-28.544-62.566-74.778-65.92c-46.95-3.456-85.632,17.69-87.885,53.683c-1.075,17.28, 6.502,34.202, 21.376,47.693
	c 15.104,13.645, 35.789,22.067, 58.342,23.757c 2.662,0.154, 5.299,0.282, 7.936,0.282C 209.408,165.683, 238.848,140.134, 240.973,106.189z M 210.227,361.574
	c 11.546-40.627-5.888-83.098-33.664-90.931C 173.363,269.747, 170.061,269.286, 166.733,269.286c-25.472,0-50.688,25.754-60.032,61.235
	C 101.478,350.464, 101.888,367.872, 107.878,384.64C 113.766,401.101, 124.339,412.262, 137.651,416c 3.2,0.922, 6.528,1.357, 9.856,1.357
	C 178.227,417.357, 197.99,404.608, 210.227,361.574z M 408.602,273.101l0,76.8 l-48.64,0 l0-76.8 l-76.8,0 l0-48.64 l 76.8,0 l0-76.8 l 48.64,0 l0,76.8 l 76.8,0 l0,48.64 L 408.602,273.101 z"  />
<glyph unicode="&#xe008;" d="M 389.12,224c0-73.523-59.622-133.12-133.12-133.12c-73.523,0-133.12,59.597-133.12,133.12c0,8.755, 0.87,17.306, 2.509,25.6L 35.84,249.6 l0-176.947 
	c0-37.99, 30.771-68.813, 68.813-68.813l 302.694,0 c 37.99,0, 68.813,30.797, 68.813,68.813L 476.16,249.6 l-89.523,0 C 388.25,241.306, 389.12,232.755, 389.12,224z M 407.347,444.16
	L 104.653,444.16 C 66.637,444.16, 35.84,413.338, 35.84,375.347L 35.84,300.8 l 111.462,0 C 171.392,334.848, 211.098,357.12, 256,357.12s 84.608-22.272, 108.698-56.32L 476.16,300.8 L 476.16,375.347 
	C 476.16,413.338, 445.338,444.16, 407.347,444.16z M 441.011,359.168c0-6.784-5.53-12.288-12.288-12.288l-36.838,0 c-6.758,0-12.288,5.53-12.288,12.288L 379.597,396.032 
	c0,6.784, 5.555,12.288, 12.288,12.288l 36.838,0 c 6.784,0, 12.288-5.53, 12.288-12.288L 441.011,359.168 z M 337.92,224c0,45.261-36.685,81.92-81.92,81.92S 174.080,269.261, 174.080,224
	s 36.685-81.92, 81.92-81.92S 337.92,178.739, 337.92,224z"  />
<glyph unicode="&#xe009;" d="M 201.574,158.029c-10.726-9.626-31.334-28.928-65.638-28.928c-40.474,0-79.462,35.482-79.462,92.237c0,72.73, 46.592,96.179, 82.381,96.179
		c 51.61,0, 62.925-31.13, 76.979-74.291l 18.765-59.136c 18.739-57.318, 53.939-103.424, 155.392-103.424c 72.755,0, 122.010,22.451, 122.010,81.562
		c0,47.898-27.008,72.73-77.414,84.557L 397.056,255.027c-25.805,5.914-33.434,16.538-33.434,34.304c0,20.096, 15.821,31.923, 41.626,31.923
		c 28.16,0, 43.392-10.65, 45.747-36.070l 58.65,7.091C 504.96,345.472, 468.608,367.36, 408.781,367.36c-52.787,0-104.371-20.096-104.371-84.531
		c0-40.192, 19.354-65.613, 67.994-77.44l 39.91-9.446c 29.901-7.091, 39.885-19.533, 39.885-36.685c0-21.862-21.12-30.72-61.005-30.72
		c-59.213,0-88.986,31.334-103.040,74.47l-19.379,59.136C 244.147,338.97, 215.066,367.36, 137.062,367.36C 67.533,367.36,0,312.371,0,218.982
		C0,129.101, 64.819,80.64, 132.966,80.64c 49.28,0, 74.291,17.306, 86.528,26.189L 201.574,158.029z"  />
<glyph unicode="&#xe00a;" d="M 129.946,401.92c0-27.213-20.096-49.254-53.146-49.254c-31.104,0-51.2,22.042-51.2,49.254c0,27.853, 20.762,49.254, 52.506,49.254
		S 129.306,429.773, 129.946,401.92z M 28.211-3.174L 28.211,313.754 L 126.72,313.754 l0-316.928 L 28.211-3.174 zM 185.677,212.659c0,39.526-1.306,72.576-2.611,101.094l 85.555,0 l 4.557-44.083l 1.946,0 c 12.954,20.762, 44.723,51.2, 97.869,51.2
		c 64.794,0, 113.408-43.418, 113.408-136.755l0-187.315 l-98.509,0 l0,175.642 c0,40.832-14.285,68.71-49.92,68.71c-27.213,0-43.392-18.79-50.534-36.941
		c-2.611-6.477-3.251-15.539-3.251-24.627l0-182.784 L 185.677-3.2 L 185.677,212.659 z"  />
<glyph unicode="&#xe00b;" d="M 220.57,141.363C 207.13,70.886, 190.72,3.302, 142.080-32c-15.002,106.547, 22.042,186.547, 39.245,271.488
	c-29.338,49.408, 3.533,148.787, 65.434,124.288c 76.16-30.131-65.946-183.629, 29.44-202.803c 99.61-20.019, 140.262,172.8, 78.515,235.494
	C 265.472,487.040, 94.925,398.566, 115.917,268.954c 5.094-31.693, 37.837-41.318, 13.082-85.043c-57.114,12.646-74.163,57.702-71.962,117.76
	C 60.57,399.949, 145.357,468.762, 230.4,478.285c 107.571,12.058, 208.512-39.475, 222.413-140.646c 15.693-114.176-48.512-237.85-163.558-228.941
	C 258.099,111.078, 245.018,126.515, 220.57,141.363z"  />
<glyph unicode="&#xe00c;" d="M 51.251,408.346l0-60.621 c 181.402,0, 328.448-147.072, 328.448-328.474l 60.646,0 C 440.346,234.138, 266.138,408.346, 51.251,408.346z M 51.251,287.078l0-60.646 
		c 114.432,0, 207.206-92.749, 207.206-207.181l 60.595,0 C 319.053,167.142, 199.168,287.078, 51.251,287.078z M 109.363,135.475c-32.077,0-58.112-26.035-58.112-58.138
		s 26.035-58.112, 58.112-58.112c 32.102,0, 58.138,26.010, 58.138,58.112S 141.466,135.475, 109.363,135.475z"  />
<glyph unicode="&#xe00d;" d="M 17.203,135.526L 25.6,171.366l-8.397,37.043c-0.23,1.101-2.33,1.946-4.915,1.946c-2.611,0-4.71-0.845-4.915-1.946L0,171.366
	l 7.398-35.84c 0.205-1.126, 2.304-1.946, 4.915-1.946C 14.874,133.581, 16.973,134.4, 17.203,135.526z M 69.683,115.635L 76.8,171.034L 69.683,256.717
	C 69.478,258.918, 66.816,260.634, 63.59,260.634c-3.251,0-5.914-1.69-6.067-3.891L 51.2,171.034l 6.323-55.398c 0.154-2.176, 2.816-3.866, 6.067-3.866
	C 66.816,111.744, 69.478,113.459, 69.683,115.635z M 122.061,116.531L 128,171.008L 122.061,285.107c-0.154,2.662-3.328,4.787-7.194,4.787
	c-3.891,0-7.066-2.099-7.194-4.787L 102.4,171.008l 5.274-54.502c 0.128-2.662, 3.302-4.762, 7.194-4.762
	C 118.733,111.744, 121.907,113.843, 122.061,116.531z M 174.336,117.35L 179.2,170.982l-4.864,114.944C 174.208,289.101, 170.624,291.61, 166.144,291.61
	c-4.506,0-8.090-2.509-8.218-5.683L 153.6,170.982l 4.352-53.632c 0.077-3.149, 3.686-5.658, 8.192-5.658C 170.624,111.693, 174.208,114.15, 174.336,117.35z
	 M 226.56,118.016L 230.4,170.957L 226.56,302.746C 226.483,306.381, 222.362,309.325, 217.395,309.325c-4.966,0-9.062-2.944-9.139-6.579L 204.8,171.008
	c0-0.077, 3.456-52.966, 3.456-52.966c 0.077-3.584, 4.173-6.528, 9.139-6.528C 222.362,111.488, 226.483,114.406, 226.56,118.016z M 263.117,111.462
	c 0.154,0, 181.734-0.102, 182.912-0.102c 36.454,0, 65.971,28.57, 65.971,63.821s-29.517,63.821-65.971,63.821c-9.062,0-17.664-1.766-25.523-4.966
	C 415.258,291.533, 365.363,336.64, 304.538,336.64c-14.874,0-29.389-2.816-42.189-7.629C 257.382,327.142, 256.026,325.248, 256,321.536l0-202.522 
	C 256.051,115.098, 259.174,111.846, 263.117,111.462z"  />
<glyph unicode="&#xe00e;" d="M 399.36,14.182c-19.866-9.472-37.888-16.154-53.99-19.968c-16.128-3.789-33.587-5.734-52.301-5.734c-21.274,0-40.064,2.739-56.448,8.166
	c-16.333,5.453-30.259,13.21-41.83,23.219c-11.546,10.112-19.558,20.787-24.013,32.128c-4.48,11.341-6.707,27.776-6.707,49.306L 164.070,266.522 L 112.64,266.522 L 112.64,333.184 
	C 130.918,339.2, 146.611,347.776, 159.616,359.014c 13.056,11.213, 23.501,24.704, 31.411,40.448C 198.912,415.206, 204.314,435.2, 207.309,459.52l 66.176,0 l0-119.066 l 110.464,0 l0-73.933 
	l-110.464,0 l0-120.806 c0-27.29, 1.434-44.826, 4.326-52.608c 2.816-7.731, 8.141-13.926, 15.898-18.56c 10.342-6.246, 22.093-9.37, 35.354-9.37
	c 23.578,0, 47.002,7.757, 70.298,23.245L 399.36,14.182 z"  />
<glyph unicode="&#xe00f;" d="M 491.52,370.099c-17.357-7.706-35.968-12.877-55.526-15.232c 19.968,11.955, 35.302,30.899, 42.496,53.453c-18.662-11.059-39.347-19.123-61.338-23.45
	c-17.638,18.79-42.752,30.515-70.554,30.515c-53.376,0-96.64-43.264-96.64-96.614c0-7.578, 0.845-14.95, 2.509-22.016
	c-80.307,4.019-151.526,42.496-199.168,100.966C 44.954,383.462, 40.166,366.848, 40.166,349.133c0-33.536, 17.075-63.104, 43.008-80.435
	c-15.846,0.512-30.746,4.838-43.776,12.083c0-0.41,0-0.794,0-1.203c0-46.822, 33.331-85.862, 77.517-94.771c-8.090-2.202-16.64-3.379-25.472-3.379
	c-6.221,0-12.262,0.589-18.176,1.715c 12.288-38.4, 48-66.33, 90.266-67.098c-33.075-25.933-74.726-41.37-120.013-41.37
	c-7.808,0-15.488,0.461-23.040,1.357c 42.752-27.418, 93.542-43.418, 148.147-43.418c 177.741,0, 274.944,147.251, 274.944,274.97
	c0,4.173-0.077,8.346-0.282,12.493C 462.182,333.696, 478.541,350.72, 491.52,370.099z"  />
<glyph unicode="&#xe010;" d="M 484.096,330.47c-25.754-147.763-169.6-272.896-212.864-301.466c-43.29-28.57-82.739,11.443-97.075,41.728
	C 157.773,105.216, 108.646,292.352, 95.77,307.814C 82.918,323.354, 44.314,292.352, 44.314,292.352L 25.6,317.338c0,0, 78.387,95.36, 138.035,107.264
	c 63.232,12.621, 63.13-98.918, 78.336-160.845c 14.72-59.93, 24.602-94.234, 37.427-94.234c 12.877,0, 37.427,33.434, 64.333,84.659
	c 26.957,51.277-1.152,96.538-53.811,64.358C 310.963,447.258, 509.85,478.208, 484.096,330.47z"  />
<glyph unicode="&#xe011;" d="M 384,384q0-7 0.5-12.25t 2.25-10.5t 3-8.5t 5-8.5t 5.25-7.5t 7.25-9.25t 8.25-9.5q 11-14 14.25-22.75t 0.75-20.25q-3.5-17 -8-30l-38.5-101l-41.5,94q-4.5,11 -18.5,58.75t-14,51.25q0,7 5,10.5q 11,9 21,9.5l0,16 l-144,0 l0-16 q 4.5-0.5 7-3t 4.75-5.75t 3.75-4.75q 7-6 16.5-29l 16-53.5
l-32-128l-66,174.5q-10,25.5 -10,31t 5.5,9.5q 12,9 22.5,9l0,16 l-103.5,0 q 35.5,45 87.75,70.5t 111.75,25.5q 47.5,0 91-16.75t 78-47.25q-19.5,0 -30.25-8t-10.75-24zM 33,349.5q 12.5-14.5 30-61.5l 97-256l 32,0 l 64,192l 80-192l 32,0 l 75.5,195q 3,8.5 12,26.75t 15.25,35t 7.75,30.25q 1.5,20 1.5,29q 32-58 32-124
q0-69.5 -34.25-128.5t-93.25-93.25t-128.5-34.25q-52,0 -99.5,20.25t-81.75,54.5t-54.5,81.75t-20.25,99.5q0,67 33,125.5z"  />
<glyph unicode="&#xe012;" d="M 464,48q-111-16 -208-16q-43,0 -95,4t-82.5,8l-30.5,4q-13.5,2.5 -23.75,18.75t-15,39.25t-7,43t-2.25,36.5l0,77 q0,127.5 48,137.5q 111,16 208,16q 43,0 95-4t 82.5-8l 30.5-4q 14.5-2 24.75-18.25t 14.75-39.75t 6.5-43t 2-36.5l0-77 q0-18 -1.5-36.5t-6-42.5t-15-40t-25.5-18.5zM 346.5,236.5
l-131,80q-5.5,5 -14.5,2.75t-9-7.25l0-176 q0-5.5 9-7.5t 14.5,3l 131,80q 5.5,5 5.5,12.5t-5.5,12.5z"  />
<glyph unicode="&#x20;" horiz-adv-x="256" />
</font>
</defs>
</svg>
